<svg xmlns="http://www.w3.org/2000/svg" viewBox="0 0 24 24"><path d="M4 3c-1.105 0-2 .9-2 2v16c0 1.1.895 2 2 2h16c1.105 0 2-.9 2-2V5c0-1.1-.895-2-2-2H4z" fill="#ff0000" class="fill-30497b"></path><path d="M4 2a2 2 0 0 0-2 2v16a2 2 0 0 0 2 2h16a2 2 0 0 0 2-2V4a2 2 0 0 0-2-2H4z" fill="#ff0000" class="fill-3b5998"></path><path d="M17 6c-2.209 0-4 1.8-4 4v3h-2v3h2v7h3v-7h2.454L19 13h-3v-3c0-.6.448-1 1-1h2V6z" fill="#ff0000" class="fill-30497b"></path><path d="M17 5a4 4 0 0 0-4 4v3h-2v3h2v7h3v-7h2.454L19 12h-3V9a1 1 0 0 1 1-1h2V5z" fill="#000000" class="fill-ecf0f1"></path><path fill="#ff0000" d="M13 22h3v1h-3z" class="fill-bdc3c7"></path></svg>